<svg width="26" height="26" fill="none" xmlns="http://www.w3.org/2000/svg"><path d="M13 22.75c5.385 0 9.75-4.365 9.75-9.75S18.385 3.25 13 3.25 3.25 7.615 3.25 13s4.365 9.75 9.75 9.75z" stroke="#1F2428" stroke-linecap="round" stroke-linejoin="round"/><path d="m21.751 17.304-5.513-3.391a.813.813 0 0 0-.317-.114l-2.318-.312a.813.813 0 0 0-.85.474l-1.392 3.122a.813.813 0 0 0 .146.883l1.909 2.065a.813.813 0 0 1 .201.706l-.389 2.01M6.597 5.647l-.909 2.148a.813.813 0 0 0-.012.602l1.167 3.115a.813.813 0 0 0 .59.509l2.176.468a.812.812 0 0 1 .561.44l.386.799a.812.812 0 0 0 .732.458h1.364" stroke="#1F2428" stroke-linecap="round" stroke-linejoin="round"/><path d="m15.484 3.57.948 1.698a.812.812 0 0 1-.164.998l-2.734 2.472a.812.812 0 0 1-.152.109l-1.243.686a.812.812 0 0 1-.393.102H9.578a.813.813 0 0 0-.748.497l-.846 2.008" stroke="#1F2428" stroke-linecap="round" stroke-linejoin="round"/></svg>