<svg width="26" height="26" fill="none" xmlns="http://www.w3.org/2000/svg"><path d="M8.938 5.688H6.5a.813.813 0 0 0-.813.812v13c0 .449.364.813.813.813h2.438a.813.813 0 0 0 .812-.813v-13a.813.813 0 0 0-.813-.813zM19.5 5.688h-2.438a.813.813 0 0 0-.812.812v13c0 .449.364.813.813.813H19.5a.813.813 0 0 0 .813-.813v-13a.813.813 0 0 0-.813-.813z" stroke="#1F2428" stroke-linecap="round" stroke-linejoin="round"/><path d="M20.313 8.125h2.437a.812.812 0 0 1 .813.813v8.124a.812.812 0 0 1-.813.813h-2.438M5.688 17.875H3.25a.812.812 0 0 1-.813-.813V8.938a.812.812 0 0 1 .813-.812h2.438M9.75 13h6.5M23.563 13h1.625M.813 13h1.625" stroke="#1F2428" stroke-linecap="round" stroke-linejoin="round"/></svg>