<svg width="16" height="16" fill="none" xmlns="http://www.w3.org/2000/svg"><circle cx="8" cy="8" r="8" fill="#C0C9D7"/><path d="m9.38 10.642-.107.438c-.321.127-.578.223-.769.29-.19.066-.413.099-.666.099-.389 0-.691-.095-.907-.284a.92.92 0 0 1-.323-.723c0-.113.008-.23.024-.348.016-.118.042-.252.078-.4l.401-1.421c.036-.136.066-.265.09-.387a1.68 1.68 0 0 0 .037-.333c0-.18-.037-.308-.112-.38-.075-.07-.218-.106-.43-.106-.103 0-.21.016-.318.048-.11.033-.203.064-.281.093l.107-.438c.263-.107.514-.199.755-.275.24-.076.467-.114.682-.114.386 0 .684.093.893.28.21.186.314.428.314.727 0 .061-.007.17-.022.326a2.18 2.18 0 0 1-.08.428l-.4 1.414a3.754 3.754 0 0 0-.127.72c0 .188.042.317.126.385.085.068.23.102.437.102.097 0 .208-.017.33-.051.123-.034.212-.064.268-.09zm.101-5.938a.828.828 0 0 1-.28.63.952.952 0 0 1-.672.26.962.962 0 0 1-.677-.26.826.826 0 0 1-.282-.63c0-.246.094-.457.282-.632a.958.958 0 0 1 .677-.263c.262 0 .486.088.673.263.186.175.28.386.28.632z" fill="#F2F6FC"/></svg>